<?xml version="1.0" encoding="UTF-8" standalone="no"?>
<!DOCTYPE svg PUBLIC "-//W3C//DTD SVG 1.1//EN"
 "http://www.w3.org/Graphics/SVG/1.1/DTD/svg11.dtd">
<!-- Generated by graphviz version 13.1.0 (20250701.0955)
 -->
<!-- Title: src/driver_pmw3901mb.h Pages: 1 -->
<svg width="1178pt" height="232pt"
 viewBox="0.00 0.00 1178.00 232.00" xmlns="http://www.w3.org/2000/svg" xmlns:xlink="http://www.w3.org/1999/xlink">
<g id="graph0" class="graph" transform="scale(1 1) rotate(0) translate(4 228)">
<title>src/driver_pmw3901mb.h</title>
<!-- Node1 -->
<g id="Node000001" class="node">
<title>Node1</title>
<g id="a_Node000001"><a xlink:title="driver pmw3901mb header file">
<polygon fill="#999999" stroke="#666666" points="759,-224 633.5,-224 633.5,-204 759,-204 759,-224"/>
<text xml:space="preserve" text-anchor="middle" x="696.25" y="-210.5" font-family="Helvetica,sans-Serif" font-size="10.00">src/driver_pmw3901mb.h</text>
</a>
</g>
</g>
<!-- Node2 -->
<g id="Node000002" class="node">
<title>Node2</title>
<g id="a_Node000002"><a xlink:href="driver__pmw3901mb__interface_8h.html" target="_top" xlink:title="driver pmw3901mb interface header file">
<polygon fill="white" stroke="#666666" points="691.88,-168 550.62,-168 550.62,-136 691.88,-136 691.88,-168"/>
<text xml:space="preserve" text-anchor="start" x="558.62" y="-154.5" font-family="Helvetica,sans-Serif" font-size="10.00">interface/driver_pmw3901mb</text>
<text xml:space="preserve" text-anchor="middle" x="621.25" y="-142.5" font-family="Helvetica,sans-Serif" font-size="10.00">_interface.h</text>
</a>
</g>
</g>
<!-- Node1&#45;&gt;Node2 -->
<g id="edge1_Node000001_Node000002" class="edge">
<title>Node1&#45;&gt;Node2</title>
<g id="a_edge1_Node000001_Node000002"><a xlink:title=" ">
<path fill="none" stroke="#63b8ff" d="M675.64,-196.51C664.66,-187.72 651.23,-176.98 640.47,-168.37"/>
<polygon fill="#63b8ff" stroke="#63b8ff" points="673.35,-199.17 683.35,-202.68 677.73,-193.7 673.35,-199.17"/>
</a>
</g>
</g>
<!-- Node18 -->
<g id="Node000018" class="node">
<title>Node18</title>
<g id="a_Node000018"><a xlink:href="driver__pmw3901mb_8c.html" target="_top" xlink:title="driver pmw3901mb source file">
<polygon fill="white" stroke="#666666" points="835,-162 709.5,-162 709.5,-142 835,-142 835,-162"/>
<text xml:space="preserve" text-anchor="middle" x="772.25" y="-148.5" font-family="Helvetica,sans-Serif" font-size="10.00">src/driver_pmw3901mb.c</text>
</a>
</g>
</g>
<!-- Node1&#45;&gt;Node18 -->
<g id="edge17_Node000001_Node000018" class="edge">
<title>Node1&#45;&gt;Node18</title>
<g id="a_edge17_Node000001_Node000018"><a xlink:title=" ">
<path fill="none" stroke="#63b8ff" d="M717.09,-196.55C731.15,-185.45 749.16,-171.23 760.71,-162.11"/>
<polygon fill="#63b8ff" stroke="#63b8ff" points="714.99,-193.74 709.31,-202.69 719.33,-199.24 714.99,-193.74"/>
</a>
</g>
</g>
<!-- Node3 -->
<g id="Node000003" class="node">
<title>Node3</title>
<g id="a_Node000003"><a xlink:href="driver__pmw3901mb__basic_8h.html" target="_top" xlink:title="driver pmw3901mb basic header file">
<polygon fill="white" stroke="#666666" points="140.5,-100 0,-100 0,-68 140.5,-68 140.5,-100"/>
<text xml:space="preserve" text-anchor="start" x="8" y="-86.5" font-family="Helvetica,sans-Serif" font-size="10.00">example/driver_pmw3901mb</text>
<text xml:space="preserve" text-anchor="middle" x="70.25" y="-74.5" font-family="Helvetica,sans-Serif" font-size="10.00">_basic.h</text>
</a>
</g>
</g>
<!-- Node2&#45;&gt;Node3 -->
<g id="edge2_Node000002_Node000003" class="edge">
<title>Node2&#45;&gt;Node3</title>
<g id="a_edge2_Node000002_Node000003"><a xlink:title=" ">
<path fill="none" stroke="#63b8ff" d="M538.97,-144.04C444.77,-135.62 285.96,-120.04 150.25,-100 147.17,-99.55 144.04,-99.06 140.87,-98.55"/>
<polygon fill="#63b8ff" stroke="#63b8ff" points="538.64,-147.52 548.91,-144.92 539.25,-140.55 538.64,-147.52"/>
</a>
</g>
</g>
<!-- Node5 -->
<g id="Node000005" class="node">
<title>Node5</title>
<g id="a_Node000005"><a xlink:href="driver__pmw3901mb__frame_8h.html" target="_top" xlink:title="driver pmw3901mb frame header file">
<polygon fill="white" stroke="#666666" points="299.5,-100 159,-100 159,-68 299.5,-68 299.5,-100"/>
<text xml:space="preserve" text-anchor="start" x="167" y="-86.5" font-family="Helvetica,sans-Serif" font-size="10.00">example/driver_pmw3901mb</text>
<text xml:space="preserve" text-anchor="middle" x="229.25" y="-74.5" font-family="Helvetica,sans-Serif" font-size="10.00">_frame.h</text>
</a>
</g>
</g>
<!-- Node2&#45;&gt;Node5 -->
<g id="edge4_Node000002_Node000005" class="edge">
<title>Node2&#45;&gt;Node5</title>
<g id="a_edge4_Node000002_Node000005"><a xlink:title=" ">
<path fill="none" stroke="#63b8ff" d="M539.18,-138.12C476.21,-128.11 387.15,-113.67 309.25,-100 306.19,-99.46 303.06,-98.91 299.9,-98.34"/>
<polygon fill="#63b8ff" stroke="#63b8ff" points="538.31,-141.53 548.73,-139.64 539.41,-134.61 538.31,-141.53"/>
</a>
</g>
</g>
<!-- Node7 -->
<g id="Node000007" class="node">
<title>Node7</title>
<g id="a_Node000007"><a xlink:href="driver__pmw3901mb__interrupt_8h.html" target="_top" xlink:title="driver pmw3901mb interrupt header file">
<polygon fill="white" stroke="#666666" points="458.5,-100 318,-100 318,-68 458.5,-68 458.5,-100"/>
<text xml:space="preserve" text-anchor="start" x="326" y="-86.5" font-family="Helvetica,sans-Serif" font-size="10.00">example/driver_pmw3901mb</text>
<text xml:space="preserve" text-anchor="middle" x="388.25" y="-74.5" font-family="Helvetica,sans-Serif" font-size="10.00">_interrupt.h</text>
</a>
</g>
</g>
<!-- Node2&#45;&gt;Node7 -->
<g id="edge6_Node000002_Node000007" class="edge">
<title>Node2&#45;&gt;Node7</title>
<g id="a_edge6_Node000002_Node000007"><a xlink:title=" ">
<path fill="none" stroke="#63b8ff" d="M555.85,-132.47C520.25,-122.39 476.72,-110.06 442.94,-100.49"/>
<polygon fill="#63b8ff" stroke="#63b8ff" points="554.59,-135.76 565.17,-135.11 556.5,-129.02 554.59,-135.76"/>
</a>
</g>
</g>
<!-- Node9 -->
<g id="Node000009" class="node">
<title>Node9</title>
<g id="a_Node000009"><a xlink:href="driver__pmw3901mb__interface__template_8c.html" target="_top" xlink:title="driver pmw3901mb interface template source file">
<polygon fill="white" stroke="#666666" points="617.88,-100 476.62,-100 476.62,-68 617.88,-68 617.88,-100"/>
<text xml:space="preserve" text-anchor="start" x="484.62" y="-86.5" font-family="Helvetica,sans-Serif" font-size="10.00">interface/driver_pmw3901mb</text>
<text xml:space="preserve" text-anchor="middle" x="547.25" y="-74.5" font-family="Helvetica,sans-Serif" font-size="10.00">_interface_template.c</text>
</a>
</g>
</g>
<!-- Node2&#45;&gt;Node9 -->
<g id="edge8_Node000002_Node000009" class="edge">
<title>Node2&#45;&gt;Node9</title>
<g id="a_edge8_Node000002_Node000009"><a xlink:title=" ">
<path fill="none" stroke="#63b8ff" d="M595.51,-128.05C585.28,-118.92 573.78,-108.67 564.58,-100.45"/>
<polygon fill="#63b8ff" stroke="#63b8ff" points="593.16,-130.64 602.96,-134.68 597.82,-125.42 593.16,-130.64"/>
</a>
</g>
</g>
<!-- Node10 -->
<g id="Node000010" class="node">
<title>Node10</title>
<g id="a_Node000010"><a xlink:href="driver__pmw3901mb__frame__test_8h.html" target="_top" xlink:title="driver pmw3901mb frame test header file">
<polygon fill="white" stroke="#666666" points="756.38,-100 636.12,-100 636.12,-68 756.38,-68 756.38,-100"/>
<text xml:space="preserve" text-anchor="start" x="644.12" y="-86.5" font-family="Helvetica,sans-Serif" font-size="10.00">test/driver_pmw3901mb</text>
<text xml:space="preserve" text-anchor="middle" x="696.25" y="-74.5" font-family="Helvetica,sans-Serif" font-size="10.00">_frame_test.h</text>
</a>
</g>
</g>
<!-- Node2&#45;&gt;Node10 -->
<g id="edge9_Node000002_Node000010" class="edge">
<title>Node2&#45;&gt;Node10</title>
<g id="a_edge9_Node000002_Node000010"><a xlink:title=" ">
<path fill="none" stroke="#63b8ff" d="M647.02,-128.32C657.47,-119.13 669.26,-108.75 678.69,-100.45"/>
<polygon fill="#63b8ff" stroke="#63b8ff" points="644.98,-125.46 639.78,-134.69 649.6,-130.71 644.98,-125.46"/>
</a>
</g>
</g>
<!-- Node12 -->
<g id="Node000012" class="node">
<title>Node12</title>
<g id="a_Node000012"><a xlink:href="driver__pmw3901mb__interrupt__test_8h.html" target="_top" xlink:title="driver pmw3901mb interrupt test header file">
<polygon fill="white" stroke="#666666" points="894.38,-100 774.12,-100 774.12,-68 894.38,-68 894.38,-100"/>
<text xml:space="preserve" text-anchor="start" x="782.12" y="-86.5" font-family="Helvetica,sans-Serif" font-size="10.00">test/driver_pmw3901mb</text>
<text xml:space="preserve" text-anchor="middle" x="834.25" y="-74.5" font-family="Helvetica,sans-Serif" font-size="10.00">_interrupt_test.h</text>
</a>
</g>
</g>
<!-- Node2&#45;&gt;Node12 -->
<g id="edge11_Node000002_Node000012" class="edge">
<title>Node2&#45;&gt;Node12</title>
<g id="a_edge11_Node000002_Node000012"><a xlink:title=" ">
<path fill="none" stroke="#63b8ff" d="M681.88,-132.21C714.26,-122.18 753.64,-109.98 784.26,-100.49"/>
<polygon fill="#63b8ff" stroke="#63b8ff" points="681.15,-128.77 672.63,-135.08 683.22,-135.46 681.15,-128.77"/>
</a>
</g>
</g>
<!-- Node14 -->
<g id="Node000014" class="node">
<title>Node14</title>
<g id="a_Node000014"><a xlink:href="driver__pmw3901mb__read__test_8h.html" target="_top" xlink:title="driver pmw3901mb read test header file">
<polygon fill="white" stroke="#666666" points="1032.38,-100 912.12,-100 912.12,-68 1032.38,-68 1032.38,-100"/>
<text xml:space="preserve" text-anchor="start" x="920.12" y="-86.5" font-family="Helvetica,sans-Serif" font-size="10.00">test/driver_pmw3901mb</text>
<text xml:space="preserve" text-anchor="middle" x="972.25" y="-74.5" font-family="Helvetica,sans-Serif" font-size="10.00">_read_test.h</text>
</a>
</g>
</g>
<!-- Node2&#45;&gt;Node14 -->
<g id="edge13_Node000002_Node000014" class="edge">
<title>Node2&#45;&gt;Node14</title>
<g id="a_edge13_Node000002_Node000014"><a xlink:title=" ">
<path fill="none" stroke="#63b8ff" d="M703.46,-135.43C792.27,-119.29 816.86,-117.04 903.25,-100 906.02,-99.45 908.84,-98.89 911.7,-98.3"/>
<polygon fill="#63b8ff" stroke="#63b8ff" points="703,-131.95 693.79,-137.2 704.26,-138.84 703,-131.95"/>
</a>
</g>
</g>
<!-- Node16 -->
<g id="Node000016" class="node">
<title>Node16</title>
<g id="a_Node000016"><a xlink:href="driver__pmw3901mb__register__test_8h.html" target="_top" xlink:title="driver pmw3901mb register test header file">
<polygon fill="white" stroke="#666666" points="1170.38,-100 1050.12,-100 1050.12,-68 1170.38,-68 1170.38,-100"/>
<text xml:space="preserve" text-anchor="start" x="1058.12" y="-86.5" font-family="Helvetica,sans-Serif" font-size="10.00">test/driver_pmw3901mb</text>
<text xml:space="preserve" text-anchor="middle" x="1110.25" y="-74.5" font-family="Helvetica,sans-Serif" font-size="10.00">_register_test.h</text>
</a>
</g>
</g>
<!-- Node2&#45;&gt;Node16 -->
<g id="edge15_Node000002_Node000016" class="edge">
<title>Node2&#45;&gt;Node16</title>
<g id="a_edge15_Node000002_Node000016"><a xlink:title=" ">
<path fill="none" stroke="#63b8ff" d="M703.23,-135.64C852.94,-114.24 894.32,-123.66 1041.25,-100 1044.03,-99.55 1046.87,-99.06 1049.74,-98.54"/>
<polygon fill="#63b8ff" stroke="#63b8ff" points="703.15,-132.11 693.76,-137.01 704.16,-139.04 703.15,-132.11"/>
</a>
</g>
</g>
<!-- Node4 -->
<g id="Node000004" class="node">
<title>Node4</title>
<g id="a_Node000004"><a xlink:href="driver__pmw3901mb__basic_8c.html" target="_top" xlink:title="driver pmw3901mb basic source file">
<polygon fill="white" stroke="#666666" points="140.5,-32 0,-32 0,0 140.5,0 140.5,-32"/>
<text xml:space="preserve" text-anchor="start" x="8" y="-18.5" font-family="Helvetica,sans-Serif" font-size="10.00">example/driver_pmw3901mb</text>
<text xml:space="preserve" text-anchor="middle" x="70.25" y="-6.5" font-family="Helvetica,sans-Serif" font-size="10.00">_basic.c</text>
</a>
</g>
</g>
<!-- Node3&#45;&gt;Node4 -->
<g id="edge3_Node000003_Node000004" class="edge">
<title>Node3&#45;&gt;Node4</title>
<g id="a_edge3_Node000003_Node000004"><a xlink:title=" ">
<path fill="none" stroke="#63b8ff" d="M70.25,-56.31C70.25,-48.12 70.25,-39.38 70.25,-32.22"/>
<polygon fill="#63b8ff" stroke="#63b8ff" points="66.75,-56.18 70.25,-66.18 73.75,-56.18 66.75,-56.18"/>
</a>
</g>
</g>
<!-- Node6 -->
<g id="Node000006" class="node">
<title>Node6</title>
<g id="a_Node000006"><a xlink:href="driver__pmw3901mb__frame_8c.html" target="_top" xlink:title="driver pmw3901mb frame source file">
<polygon fill="white" stroke="#666666" points="299.5,-32 159,-32 159,0 299.5,0 299.5,-32"/>
<text xml:space="preserve" text-anchor="start" x="167" y="-18.5" font-family="Helvetica,sans-Serif" font-size="10.00">example/driver_pmw3901mb</text>
<text xml:space="preserve" text-anchor="middle" x="229.25" y="-6.5" font-family="Helvetica,sans-Serif" font-size="10.00">_frame.c</text>
</a>
</g>
</g>
<!-- Node5&#45;&gt;Node6 -->
<g id="edge5_Node000005_Node000006" class="edge">
<title>Node5&#45;&gt;Node6</title>
<g id="a_edge5_Node000005_Node000006"><a xlink:title=" ">
<path fill="none" stroke="#63b8ff" d="M229.25,-56.31C229.25,-48.12 229.25,-39.38 229.25,-32.22"/>
<polygon fill="#63b8ff" stroke="#63b8ff" points="225.75,-56.18 229.25,-66.18 232.75,-56.18 225.75,-56.18"/>
</a>
</g>
</g>
<!-- Node8 -->
<g id="Node000008" class="node">
<title>Node8</title>
<g id="a_Node000008"><a xlink:href="driver__pmw3901mb__interrupt_8c.html" target="_top" xlink:title="driver pmw3901mb interrupt source file">
<polygon fill="white" stroke="#666666" points="458.5,-32 318,-32 318,0 458.5,0 458.5,-32"/>
<text xml:space="preserve" text-anchor="start" x="326" y="-18.5" font-family="Helvetica,sans-Serif" font-size="10.00">example/driver_pmw3901mb</text>
<text xml:space="preserve" text-anchor="middle" x="388.25" y="-6.5" font-family="Helvetica,sans-Serif" font-size="10.00">_interrupt.c</text>
</a>
</g>
</g>
<!-- Node7&#45;&gt;Node8 -->
<g id="edge7_Node000007_Node000008" class="edge">
<title>Node7&#45;&gt;Node8</title>
<g id="a_edge7_Node000007_Node000008"><a xlink:title=" ">
<path fill="none" stroke="#63b8ff" d="M388.25,-56.31C388.25,-48.12 388.25,-39.38 388.25,-32.22"/>
<polygon fill="#63b8ff" stroke="#63b8ff" points="384.75,-56.18 388.25,-66.18 391.75,-56.18 384.75,-56.18"/>
</a>
</g>
</g>
<!-- Node11 -->
<g id="Node000011" class="node">
<title>Node11</title>
<g id="a_Node000011"><a xlink:href="driver__pmw3901mb__frame__test_8c.html" target="_top" xlink:title="driver pmw3901mb frame source file">
<polygon fill="white" stroke="#666666" points="756.38,-32 636.12,-32 636.12,0 756.38,0 756.38,-32"/>
<text xml:space="preserve" text-anchor="start" x="644.12" y="-18.5" font-family="Helvetica,sans-Serif" font-size="10.00">test/driver_pmw3901mb</text>
<text xml:space="preserve" text-anchor="middle" x="696.25" y="-6.5" font-family="Helvetica,sans-Serif" font-size="10.00">_frame_test.c</text>
</a>
</g>
</g>
<!-- Node10&#45;&gt;Node11 -->
<g id="edge10_Node000010_Node000011" class="edge">
<title>Node10&#45;&gt;Node11</title>
<g id="a_edge10_Node000010_Node000011"><a xlink:title=" ">
<path fill="none" stroke="#63b8ff" d="M696.25,-56.31C696.25,-48.12 696.25,-39.38 696.25,-32.22"/>
<polygon fill="#63b8ff" stroke="#63b8ff" points="692.75,-56.18 696.25,-66.18 699.75,-56.18 692.75,-56.18"/>
</a>
</g>
</g>
<!-- Node13 -->
<g id="Node000013" class="node">
<title>Node13</title>
<g id="a_Node000013"><a xlink:href="driver__pmw3901mb__interrupt__test_8c.html" target="_top" xlink:title="driver pmw3901mb interrupt test source file">
<polygon fill="white" stroke="#666666" points="894.38,-32 774.12,-32 774.12,0 894.38,0 894.38,-32"/>
<text xml:space="preserve" text-anchor="start" x="782.12" y="-18.5" font-family="Helvetica,sans-Serif" font-size="10.00">test/driver_pmw3901mb</text>
<text xml:space="preserve" text-anchor="middle" x="834.25" y="-6.5" font-family="Helvetica,sans-Serif" font-size="10.00">_interrupt_test.c</text>
</a>
</g>
</g>
<!-- Node12&#45;&gt;Node13 -->
<g id="edge12_Node000012_Node000013" class="edge">
<title>Node12&#45;&gt;Node13</title>
<g id="a_edge12_Node000012_Node000013"><a xlink:title=" ">
<path fill="none" stroke="#63b8ff" d="M834.25,-56.31C834.25,-48.12 834.25,-39.38 834.25,-32.22"/>
<polygon fill="#63b8ff" stroke="#63b8ff" points="830.75,-56.18 834.25,-66.18 837.75,-56.18 830.75,-56.18"/>
</a>
</g>
</g>
<!-- Node15 -->
<g id="Node000015" class="node">
<title>Node15</title>
<g id="a_Node000015"><a xlink:href="driver__pmw3901mb__read__test_8c.html" target="_top" xlink:title="driver pmw3901mb read test source file">
<polygon fill="white" stroke="#666666" points="1032.38,-32 912.12,-32 912.12,0 1032.38,0 1032.38,-32"/>
<text xml:space="preserve" text-anchor="start" x="920.12" y="-18.5" font-family="Helvetica,sans-Serif" font-size="10.00">test/driver_pmw3901mb</text>
<text xml:space="preserve" text-anchor="middle" x="972.25" y="-6.5" font-family="Helvetica,sans-Serif" font-size="10.00">_read_test.c</text>
</a>
</g>
</g>
<!-- Node14&#45;&gt;Node15 -->
<g id="edge14_Node000014_Node000015" class="edge">
<title>Node14&#45;&gt;Node15</title>
<g id="a_edge14_Node000014_Node000015"><a xlink:title=" ">
<path fill="none" stroke="#63b8ff" d="M972.25,-56.31C972.25,-48.12 972.25,-39.38 972.25,-32.22"/>
<polygon fill="#63b8ff" stroke="#63b8ff" points="968.75,-56.18 972.25,-66.18 975.75,-56.18 968.75,-56.18"/>
</a>
</g>
</g>
<!-- Node17 -->
<g id="Node000017" class="node">
<title>Node17</title>
<g id="a_Node000017"><a xlink:href="driver__pmw3901mb__register__test_8c.html" target="_top" xlink:title="driver pmw3901mb register test source file">
<polygon fill="white" stroke="#666666" points="1170.38,-32 1050.12,-32 1050.12,0 1170.38,0 1170.38,-32"/>
<text xml:space="preserve" text-anchor="start" x="1058.12" y="-18.5" font-family="Helvetica,sans-Serif" font-size="10.00">test/driver_pmw3901mb</text>
<text xml:space="preserve" text-anchor="middle" x="1110.25" y="-6.5" font-family="Helvetica,sans-Serif" font-size="10.00">_register_test.c</text>
</a>
</g>
</g>
<!-- Node16&#45;&gt;Node17 -->
<g id="edge16_Node000016_Node000017" class="edge">
<title>Node16&#45;&gt;Node17</title>
<g id="a_edge16_Node000016_Node000017"><a xlink:title=" ">
<path fill="none" stroke="#63b8ff" d="M1110.25,-56.31C1110.25,-48.12 1110.25,-39.38 1110.25,-32.22"/>
<polygon fill="#63b8ff" stroke="#63b8ff" points="1106.75,-56.18 1110.25,-66.18 1113.75,-56.18 1106.75,-56.18"/>
</a>
</g>
</g>
</g>
</svg>
