<?xml version="1.0" encoding="UTF-8" standalone="no"?>
<!DOCTYPE svg PUBLIC "-//W3C//DTD SVG 1.1//EN"
 "http://www.w3.org/Graphics/SVG/1.1/DTD/svg11.dtd">
<!-- Generated by graphviz version 13.1.0 (20250701.0955)
 -->
<!-- Title: pmw3901mb_frame_init Pages: 1 -->
<svg width="290pt" height="604pt"
 viewBox="0.00 0.00 290.00 604.00" xmlns="http://www.w3.org/2000/svg" xmlns:xlink="http://www.w3.org/1999/xlink">
<g id="graph0" class="graph" transform="scale(1 1) rotate(0) translate(4 600)">
<title>pmw3901mb_frame_init</title>
<!-- Node1 -->
<g id="Node000001" class="node">
<title>Node1</title>
<g id="a_Node000001"><a xlink:title="frame example init">
<polygon fill="#999999" stroke="#666666" points="119.5,-314 0,-314 0,-294 119.5,-294 119.5,-314"/>
<text xml:space="preserve" text-anchor="middle" x="59.75" y="-300.5" font-family="Helvetica,sans-Serif" font-size="10.00">pmw3901mb_frame_init</text>
</a>
</g>
</g>
<!-- Node2 -->
<g id="Node000002" class="node">
<title>Node2</title>
<g id="a_Node000002"><a xlink:href="group__pmw3901mb__basic__driver.html#gae6e86f9e7e32d488c1786df0b076fa9d" target="_top" xlink:title="close the chip">
<polygon fill="white" stroke="#666666" points="268.62,-596 168.62,-596 168.62,-576 268.62,-576 268.62,-596"/>
<text xml:space="preserve" text-anchor="middle" x="218.62" y="-582.5" font-family="Helvetica,sans-Serif" font-size="10.00">pmw3901mb_deinit</text>
</a>
</g>
</g>
<!-- Node1&#45;&gt;Node2 -->
<g id="edge1_Node000001_Node000002" class="edge">
<title>Node1&#45;&gt;Node2</title>
<g id="a_edge1_Node000001_Node000002"><a xlink:title=" ">
<path fill="none" stroke="#63b8ff" d="M61.29,-314.3C63.91,-353.34 78.53,-493.71 155.5,-567 156.56,-568.01 157.67,-568.96 158.82,-569.86"/>
<polygon fill="#63b8ff" stroke="#63b8ff" points="156.76,-572.71 167.1,-575.04 160.48,-566.77 156.76,-572.71"/>
</a>
</g>
</g>
<!-- Node3 -->
<g id="Node000003" class="node">
<title>Node3</title>
<g id="a_Node000003"><a xlink:href="group__pmw3901mb__basic__driver.html#ga0059aa37a4744fa6cf395d241799f43b" target="_top" xlink:title="initialize the chip">
<polygon fill="white" stroke="#666666" points="263.38,-558 173.88,-558 173.88,-538 263.38,-538 263.38,-558"/>
<text xml:space="preserve" text-anchor="middle" x="218.62" y="-544.5" font-family="Helvetica,sans-Serif" font-size="10.00">pmw3901mb_init</text>
</a>
</g>
</g>
<!-- Node1&#45;&gt;Node3 -->
<g id="edge2_Node000001_Node000003" class="edge">
<title>Node1&#45;&gt;Node3</title>
<g id="a_edge2_Node000001_Node000003"><a xlink:title=" ">
<path fill="none" stroke="#63b8ff" d="M61.99,-314.27C66.81,-349.64 87.55,-467.64 155.5,-529 157.93,-531.2 160.61,-533.14 163.46,-534.86"/>
<polygon fill="#63b8ff" stroke="#63b8ff" points="161.74,-537.91 172.25,-539.21 164.84,-531.64 161.74,-537.91"/>
</a>
</g>
</g>
<!-- Node4 -->
<g id="Node000004" class="node">
<title>Node4</title>
<g id="a_Node000004"><a xlink:href="group__pmw3901mb__interface__driver.html#ga169b0aa3af5ce82c943795ea3019e88c" target="_top" xlink:title="interface print format data">
<polygon fill="white" stroke="#666666" points="275.75,-520 161.5,-520 161.5,-488 275.75,-488 275.75,-520"/>
<text xml:space="preserve" text-anchor="start" x="169.5" y="-506.5" font-family="Helvetica,sans-Serif" font-size="10.00">pmw3901mb_interface</text>
<text xml:space="preserve" text-anchor="middle" x="218.62" y="-494.5" font-family="Helvetica,sans-Serif" font-size="10.00">_debug_print</text>
</a>
</g>
</g>
<!-- Node1&#45;&gt;Node4 -->
<g id="edge3_Node000001_Node000004" class="edge">
<title>Node1&#45;&gt;Node4</title>
<g id="a_edge3_Node000001_Node000004"><a xlink:title=" ">
<path fill="none" stroke="#63b8ff" d="M63.58,-314.24C72.29,-343.88 101.37,-430.69 155.5,-479 156.41,-479.81 157.35,-480.6 158.32,-481.37"/>
<polygon fill="#63b8ff" stroke="#63b8ff" points="156.1,-484.09 166.35,-486.77 160.01,-478.28 156.1,-484.09"/>
</a>
</g>
</g>
<!-- Node5 -->
<g id="Node000005" class="node">
<title>Node5</title>
<g id="a_Node000005"><a xlink:href="group__pmw3901mb__interface__driver.html#gac914284b3c0f745485430c3c75b7fd04" target="_top" xlink:title="interface delay ms">
<polygon fill="white" stroke="#666666" points="275.75,-470 161.5,-470 161.5,-438 275.75,-438 275.75,-470"/>
<text xml:space="preserve" text-anchor="start" x="169.5" y="-456.5" font-family="Helvetica,sans-Serif" font-size="10.00">pmw3901mb_interface</text>
<text xml:space="preserve" text-anchor="middle" x="218.62" y="-444.5" font-family="Helvetica,sans-Serif" font-size="10.00">_delay_ms</text>
</a>
</g>
</g>
<!-- Node1&#45;&gt;Node5 -->
<g id="edge4_Node000001_Node000005" class="edge">
<title>Node1&#45;&gt;Node5</title>
<g id="a_edge4_Node000001_Node000005"><a xlink:title=" ">
<path fill="none" stroke="#63b8ff" d="M65.97,-314.23C78.4,-337.66 112.01,-395.77 155.5,-429 156.8,-429.99 158.14,-430.95 159.52,-431.88"/>
<polygon fill="#63b8ff" stroke="#63b8ff" points="157.37,-434.67 167.75,-436.75 160.93,-428.64 157.37,-434.67"/>
</a>
</g>
</g>
<!-- Node6 -->
<g id="Node000006" class="node">
<title>Node6</title>
<g id="a_Node000006"><a xlink:href="group__pmw3901mb__interface__driver.html#gac568697827e7a010b4ef783303aafadc" target="_top" xlink:title="interface reset gpio deinit">
<polygon fill="white" stroke="#666666" points="275.75,-420 161.5,-420 161.5,-388 275.75,-388 275.75,-420"/>
<text xml:space="preserve" text-anchor="start" x="169.5" y="-406.5" font-family="Helvetica,sans-Serif" font-size="10.00">pmw3901mb_interface</text>
<text xml:space="preserve" text-anchor="middle" x="218.62" y="-394.5" font-family="Helvetica,sans-Serif" font-size="10.00">_reset_gpio_deinit</text>
</a>
</g>
</g>
<!-- Node1&#45;&gt;Node6 -->
<g id="edge5_Node000001_Node000006" class="edge">
<title>Node1&#45;&gt;Node6</title>
<g id="a_edge5_Node000001_Node000006"><a xlink:title=" ">
<path fill="none" stroke="#63b8ff" d="M71.65,-314.37C88.52,-330.01 122.48,-359.83 155.5,-379 157.66,-380.26 159.9,-381.48 162.19,-382.66"/>
<polygon fill="#63b8ff" stroke="#63b8ff" points="160.55,-385.76 171.07,-386.95 163.59,-379.45 160.55,-385.76"/>
</a>
</g>
</g>
<!-- Node7 -->
<g id="Node000007" class="node">
<title>Node7</title>
<g id="a_Node000007"><a xlink:href="group__pmw3901mb__interface__driver.html#gadcd6c1f755e7ad2688498fa6c1753f26" target="_top" xlink:title="interface reset gpio init">
<polygon fill="white" stroke="#666666" points="275.75,-370 161.5,-370 161.5,-338 275.75,-338 275.75,-370"/>
<text xml:space="preserve" text-anchor="start" x="169.5" y="-356.5" font-family="Helvetica,sans-Serif" font-size="10.00">pmw3901mb_interface</text>
<text xml:space="preserve" text-anchor="middle" x="218.62" y="-344.5" font-family="Helvetica,sans-Serif" font-size="10.00">_reset_gpio_init</text>
</a>
</g>
</g>
<!-- Node1&#45;&gt;Node7 -->
<g id="edge6_Node000001_Node000007" class="edge">
<title>Node1&#45;&gt;Node7</title>
<g id="a_edge6_Node000001_Node000007"><a xlink:title=" ">
<path fill="none" stroke="#63b8ff" d="M93.64,-314.48C111.46,-320.16 134.09,-327.38 155.13,-334.08"/>
<polygon fill="#63b8ff" stroke="#63b8ff" points="153.91,-337.37 164.5,-337.07 156.04,-330.7 153.91,-337.37"/>
</a>
</g>
</g>
<!-- Node8 -->
<g id="Node000008" class="node">
<title>Node8</title>
<g id="a_Node000008"><a xlink:href="group__pmw3901mb__interface__driver.html#ga54ecf0d09850b36d4733c1a69b4689f6" target="_top" xlink:title="interface reset gpio write">
<polygon fill="white" stroke="#666666" points="275.75,-320 161.5,-320 161.5,-288 275.75,-288 275.75,-320"/>
<text xml:space="preserve" text-anchor="start" x="169.5" y="-306.5" font-family="Helvetica,sans-Serif" font-size="10.00">pmw3901mb_interface</text>
<text xml:space="preserve" text-anchor="middle" x="218.62" y="-294.5" font-family="Helvetica,sans-Serif" font-size="10.00">_reset_gpio_write</text>
</a>
</g>
</g>
<!-- Node1&#45;&gt;Node8 -->
<g id="edge7_Node000001_Node000008" class="edge">
<title>Node1&#45;&gt;Node8</title>
<g id="a_edge7_Node000001_Node000008"><a xlink:title=" ">
<path fill="none" stroke="#63b8ff" d="M119.61,-304C129.47,-304 139.76,-304 149.82,-304"/>
<polygon fill="#63b8ff" stroke="#63b8ff" points="149.52,-307.5 159.52,-304 149.52,-300.5 149.52,-307.5"/>
</a>
</g>
</g>
<!-- Node9 -->
<g id="Node000009" class="node">
<title>Node9</title>
<g id="a_Node000009"><a xlink:href="group__pmw3901mb__interface__driver.html#ga1e7baaeae268fb3a6de31f267d4cceba" target="_top" xlink:title="interface spi bus deinit">
<polygon fill="white" stroke="#666666" points="275.75,-270 161.5,-270 161.5,-238 275.75,-238 275.75,-270"/>
<text xml:space="preserve" text-anchor="start" x="169.5" y="-256.5" font-family="Helvetica,sans-Serif" font-size="10.00">pmw3901mb_interface</text>
<text xml:space="preserve" text-anchor="middle" x="218.62" y="-244.5" font-family="Helvetica,sans-Serif" font-size="10.00">_spi_deinit</text>
</a>
</g>
</g>
<!-- Node1&#45;&gt;Node9 -->
<g id="edge8_Node000001_Node000009" class="edge">
<title>Node1&#45;&gt;Node9</title>
<g id="a_edge8_Node000001_Node000009"><a xlink:title=" ">
<path fill="none" stroke="#63b8ff" d="M93.64,-293.52C111.46,-287.84 134.09,-280.62 155.13,-273.92"/>
<polygon fill="#63b8ff" stroke="#63b8ff" points="156.04,-277.3 164.5,-270.93 153.91,-270.63 156.04,-277.3"/>
</a>
</g>
</g>
<!-- Node10 -->
<g id="Node000010" class="node">
<title>Node10</title>
<g id="a_Node000010"><a xlink:href="group__pmw3901mb__interface__driver.html#gaa7adefa26694239a84ae7ede63019fc7" target="_top" xlink:title="interface spi bus init">
<polygon fill="white" stroke="#666666" points="275.75,-220 161.5,-220 161.5,-188 275.75,-188 275.75,-220"/>
<text xml:space="preserve" text-anchor="start" x="169.5" y="-206.5" font-family="Helvetica,sans-Serif" font-size="10.00">pmw3901mb_interface</text>
<text xml:space="preserve" text-anchor="middle" x="218.62" y="-194.5" font-family="Helvetica,sans-Serif" font-size="10.00">_spi_init</text>
</a>
</g>
</g>
<!-- Node1&#45;&gt;Node10 -->
<g id="edge9_Node000001_Node000010" class="edge">
<title>Node1&#45;&gt;Node10</title>
<g id="a_edge9_Node000001_Node000010"><a xlink:title=" ">
<path fill="none" stroke="#63b8ff" d="M71.65,-293.63C88.52,-277.99 122.48,-248.17 155.5,-229 157.66,-227.74 159.9,-226.52 162.19,-225.34"/>
<polygon fill="#63b8ff" stroke="#63b8ff" points="163.59,-228.55 171.07,-221.05 160.55,-222.24 163.59,-228.55"/>
</a>
</g>
</g>
<!-- Node11 -->
<g id="Node000011" class="node">
<title>Node11</title>
<g id="a_Node000011"><a xlink:href="group__pmw3901mb__interface__driver.html#ga6bd4337ac012c697f52c2287e868ff05" target="_top" xlink:title="interface spi bus read">
<polygon fill="white" stroke="#666666" points="275.75,-170 161.5,-170 161.5,-138 275.75,-138 275.75,-170"/>
<text xml:space="preserve" text-anchor="start" x="169.5" y="-156.5" font-family="Helvetica,sans-Serif" font-size="10.00">pmw3901mb_interface</text>
<text xml:space="preserve" text-anchor="middle" x="218.62" y="-144.5" font-family="Helvetica,sans-Serif" font-size="10.00">_spi_read</text>
</a>
</g>
</g>
<!-- Node1&#45;&gt;Node11 -->
<g id="edge10_Node000001_Node000011" class="edge">
<title>Node1&#45;&gt;Node11</title>
<g id="a_edge10_Node000001_Node000011"><a xlink:title=" ">
<path fill="none" stroke="#63b8ff" d="M65.97,-293.77C78.4,-270.34 112.01,-212.23 155.5,-179 156.8,-178.01 158.14,-177.05 159.52,-176.12"/>
<polygon fill="#63b8ff" stroke="#63b8ff" points="160.93,-179.36 167.75,-171.25 157.37,-173.33 160.93,-179.36"/>
</a>
</g>
</g>
<!-- Node12 -->
<g id="Node000012" class="node">
<title>Node12</title>
<g id="a_Node000012"><a xlink:href="group__pmw3901mb__interface__driver.html#ga1aeefc55c16e07637f9b86639670ef2d" target="_top" xlink:title="interface spi bus write">
<polygon fill="white" stroke="#666666" points="275.75,-120 161.5,-120 161.5,-88 275.75,-88 275.75,-120"/>
<text xml:space="preserve" text-anchor="start" x="169.5" y="-106.5" font-family="Helvetica,sans-Serif" font-size="10.00">pmw3901mb_interface</text>
<text xml:space="preserve" text-anchor="middle" x="218.62" y="-94.5" font-family="Helvetica,sans-Serif" font-size="10.00">_spi_write</text>
</a>
</g>
</g>
<!-- Node1&#45;&gt;Node12 -->
<g id="edge11_Node000001_Node000012" class="edge">
<title>Node1&#45;&gt;Node12</title>
<g id="a_edge11_Node000001_Node000012"><a xlink:title=" ">
<path fill="none" stroke="#63b8ff" d="M63.58,-293.76C72.29,-264.12 101.37,-177.31 155.5,-129 156.41,-128.19 157.35,-127.4 158.32,-126.63"/>
<polygon fill="#63b8ff" stroke="#63b8ff" points="160.01,-129.72 166.35,-121.23 156.1,-123.91 160.01,-129.72"/>
</a>
</g>
</g>
<!-- Node13 -->
<g id="Node000013" class="node">
<title>Node13</title>
<g id="a_Node000013"><a xlink:href="group__pmw3901mb__basic__driver.html#ga9506db09c4cbed19f76b351641c91fdb" target="_top" xlink:title="power up the chip">
<polygon fill="white" stroke="#666666" points="278,-70 159.25,-70 159.25,-50 278,-50 278,-70"/>
<text xml:space="preserve" text-anchor="middle" x="218.62" y="-56.5" font-family="Helvetica,sans-Serif" font-size="10.00">pmw3901mb_power_up</text>
</a>
</g>
</g>
<!-- Node1&#45;&gt;Node13 -->
<g id="edge12_Node000001_Node000013" class="edge">
<title>Node1&#45;&gt;Node13</title>
<g id="a_edge12_Node000001_Node000013"><a xlink:title=" ">
<path fill="none" stroke="#63b8ff" d="M61.99,-293.73C66.81,-258.36 87.55,-140.36 155.5,-79 156.58,-78.02 157.72,-77.09 158.89,-76.21"/>
<polygon fill="#63b8ff" stroke="#63b8ff" points="160.53,-79.31 167.27,-71.14 156.91,-73.32 160.53,-79.31"/>
</a>
</g>
</g>
<!-- Node14 -->
<g id="Node000014" class="node">
<title>Node14</title>
<g id="a_Node000014"><a xlink:href="group__pmw3901mb__basic__driver.html#gafb369171524c2894b27d7c49f8c2ea84" target="_top" xlink:title="start frame capture">
<polygon fill="white" stroke="#666666" points="281.75,-32 155.5,-32 155.5,0 281.75,0 281.75,-32"/>
<text xml:space="preserve" text-anchor="start" x="163.5" y="-18.5" font-family="Helvetica,sans-Serif" font-size="10.00">pmw3901mb_start_frame</text>
<text xml:space="preserve" text-anchor="middle" x="218.62" y="-6.5" font-family="Helvetica,sans-Serif" font-size="10.00">_capture</text>
</a>
</g>
</g>
<!-- Node1&#45;&gt;Node14 -->
<g id="edge13_Node000001_Node000014" class="edge">
<title>Node1&#45;&gt;Node14</title>
<g id="a_edge13_Node000001_Node000014"><a xlink:title=" ">
<path fill="none" stroke="#63b8ff" d="M61.52,-293.64C64.92,-254.96 81.91,-117.35 155.5,-41 156.09,-40.39 156.7,-39.79 157.32,-39.21"/>
<polygon fill="#63b8ff" stroke="#63b8ff" points="159.18,-42.19 164.97,-33.32 154.91,-36.65 159.18,-42.19"/>
</a>
</g>
</g>
</g>
</svg>
