<?xml version="1.0" encoding="UTF-8" standalone="no"?>
<!DOCTYPE svg PUBLIC "-//W3C//DTD SVG 1.1//EN"
 "http://www.w3.org/Graphics/SVG/1.1/DTD/svg11.dtd">
<!-- Generated by graphviz version 13.1.0 (20250701.0955)
 -->
<!-- Title: pmw3901mb_basic_read Pages: 1 -->
<svg width="291pt" height="78pt"
 viewBox="0.00 0.00 291.00 78.00" xmlns="http://www.w3.org/2000/svg" xmlns:xlink="http://www.w3.org/1999/xlink">
<g id="graph0" class="graph" transform="scale(1 1) rotate(0) translate(4 74)">
<title>pmw3901mb_basic_read</title>
<!-- Node1 -->
<g id="Node000001" class="node">
<title>Node1</title>
<g id="a_Node000001"><a xlink:title="basic example read">
<polygon fill="#999999" stroke="#666666" points="124,-48 0,-48 0,-28 124,-28 124,-48"/>
<text xml:space="preserve" text-anchor="middle" x="62" y="-34.5" font-family="Helvetica,sans-Serif" font-size="10.00">pmw3901mb_basic_read</text>
</a>
</g>
</g>
<!-- Node2 -->
<g id="Node000002" class="node">
<title>Node2</title>
<g id="a_Node000002"><a xlink:href="group__pmw3901mb__basic__driver.html#gaf87ae5e594c7cdbea07b8c6d319e62a1" target="_top" xlink:title="burst read data">
<polygon fill="white" stroke="#666666" points="282.5,-70 160,-70 160,-50 282.5,-50 282.5,-70"/>
<text xml:space="preserve" text-anchor="middle" x="221.25" y="-56.5" font-family="Helvetica,sans-Serif" font-size="10.00">pmw3901mb_burst_read</text>
</a>
</g>
</g>
<!-- Node1&#45;&gt;Node2 -->
<g id="edge1_Node000001_Node000002" class="edge">
<title>Node1&#45;&gt;Node2</title>
<g id="a_edge1_Node000001_Node000002"><a xlink:title=" ">
<path fill="none" stroke="#63b8ff" d="M124.25,-46.57C132.16,-47.68 140.32,-48.82 148.38,-49.95"/>
<polygon fill="#63b8ff" stroke="#63b8ff" points="147.8,-53.4 158.19,-51.32 148.77,-46.47 147.8,-53.4"/>
</a>
</g>
</g>
<!-- Node3 -->
<g id="Node000003" class="node">
<title>Node3</title>
<g id="a_Node000003"><a xlink:href="group__pmw3901mb__basic__driver.html#gade85aa7233618a9990ee3030c627b29b" target="_top" xlink:title="convert the delta raw to the delta cm">
<polygon fill="white" stroke="#666666" points="280.62,-32 161.88,-32 161.88,0 280.62,0 280.62,-32"/>
<text xml:space="preserve" text-anchor="start" x="169.88" y="-18.5" font-family="Helvetica,sans-Serif" font-size="10.00">pmw3901mb_delta_raw</text>
<text xml:space="preserve" text-anchor="middle" x="221.25" y="-6.5" font-family="Helvetica,sans-Serif" font-size="10.00">_to_delta_cm</text>
</a>
</g>
</g>
<!-- Node1&#45;&gt;Node3 -->
<g id="edge2_Node000001_Node000003" class="edge">
<title>Node1&#45;&gt;Node3</title>
<g id="a_edge2_Node000001_Node000003"><a xlink:title=" ">
<path fill="none" stroke="#63b8ff" d="M124.25,-29.43C132.76,-28.24 141.56,-27.01 150.22,-25.8"/>
<polygon fill="#63b8ff" stroke="#63b8ff" points="150.57,-29.28 159.99,-24.43 149.6,-22.35 150.57,-29.28"/>
</a>
</g>
</g>
</g>
</svg>
