<?xml version="1.0" encoding="UTF-8" standalone="no"?>
<!DOCTYPE svg PUBLIC "-//W3C//DTD SVG 1.1//EN"
 "http://www.w3.org/Graphics/SVG/1.1/DTD/svg11.dtd">
<!-- Generated by graphviz version 13.1.0 (20250701.0955)
 -->
<!-- Title: pmw3901mb_interrupt_init Pages: 1 -->
<svg width="307pt" height="604pt"
 viewBox="0.00 0.00 307.00 604.00" xmlns="http://www.w3.org/2000/svg" xmlns:xlink="http://www.w3.org/1999/xlink">
<g id="graph0" class="graph" transform="scale(1 1) rotate(0) translate(4 600)">
<title>pmw3901mb_interrupt_init</title>
<!-- Node1 -->
<g id="Node000001" class="node">
<title>Node1</title>
<g id="a_Node000001"><a xlink:title="interrupt example init">
<polygon fill="#999999" stroke="#666666" points="130,-314 0,-314 0,-294 130,-294 130,-314"/>
<text xml:space="preserve" text-anchor="middle" x="65" y="-300.5" font-family="Helvetica,sans-Serif" font-size="10.00">pmw3901mb_interrupt_init</text>
</a>
</g>
</g>
<!-- Node2 -->
<g id="Node000002" class="node">
<title>Node2</title>
<g id="a_Node000002"><a xlink:href="group__pmw3901mb__basic__driver.html#gae6e86f9e7e32d488c1786df0b076fa9d" target="_top" xlink:title="close the chip">
<polygon fill="white" stroke="#666666" points="282.5,-596 182.5,-596 182.5,-576 282.5,-576 282.5,-596"/>
<text xml:space="preserve" text-anchor="middle" x="232.5" y="-582.5" font-family="Helvetica,sans-Serif" font-size="10.00">pmw3901mb_deinit</text>
</a>
</g>
</g>
<!-- Node1&#45;&gt;Node2 -->
<g id="edge1_Node000001_Node000002" class="edge">
<title>Node1&#45;&gt;Node2</title>
<g id="a_edge1_Node000001_Node000002"><a xlink:title=" ">
<path fill="none" stroke="#63b8ff" d="M66.73,-314.35C70.08,-353.57 87.35,-494.48 166,-567 167.98,-568.83 170.13,-570.48 172.4,-571.98"/>
<polygon fill="#63b8ff" stroke="#63b8ff" points="170.49,-574.92 180.96,-576.56 173.8,-568.75 170.49,-574.92"/>
</a>
</g>
</g>
<!-- Node3 -->
<g id="Node000003" class="node">
<title>Node3</title>
<g id="a_Node000003"><a xlink:href="group__pmw3901mb__basic__driver.html#ga0059aa37a4744fa6cf395d241799f43b" target="_top" xlink:title="initialize the chip">
<polygon fill="white" stroke="#666666" points="277.25,-558 187.75,-558 187.75,-538 277.25,-538 277.25,-558"/>
<text xml:space="preserve" text-anchor="middle" x="232.5" y="-544.5" font-family="Helvetica,sans-Serif" font-size="10.00">pmw3901mb_init</text>
</a>
</g>
</g>
<!-- Node1&#45;&gt;Node3 -->
<g id="edge2_Node000001_Node000003" class="edge">
<title>Node1&#45;&gt;Node3</title>
<g id="a_edge2_Node000001_Node000003"><a xlink:title=" ">
<path fill="none" stroke="#63b8ff" d="M67.47,-314.32C73.07,-349.85 96.43,-468.29 166,-529 169.37,-531.94 173.16,-534.42 177.19,-536.52"/>
<polygon fill="#63b8ff" stroke="#63b8ff" points="175.61,-539.65 186.17,-540.4 178.38,-533.22 175.61,-539.65"/>
</a>
</g>
</g>
<!-- Node4 -->
<g id="Node000004" class="node">
<title>Node4</title>
<g id="a_Node000004"><a xlink:href="group__pmw3901mb__interface__driver.html#ga169b0aa3af5ce82c943795ea3019e88c" target="_top" xlink:title="interface print format data">
<polygon fill="white" stroke="#666666" points="289.62,-520 175.38,-520 175.38,-488 289.62,-488 289.62,-520"/>
<text xml:space="preserve" text-anchor="start" x="183.38" y="-506.5" font-family="Helvetica,sans-Serif" font-size="10.00">pmw3901mb_interface</text>
<text xml:space="preserve" text-anchor="middle" x="232.5" y="-494.5" font-family="Helvetica,sans-Serif" font-size="10.00">_debug_print</text>
</a>
</g>
</g>
<!-- Node1&#45;&gt;Node4 -->
<g id="edge3_Node000001_Node000004" class="edge">
<title>Node1&#45;&gt;Node4</title>
<g id="a_edge3_Node000001_Node000004"><a xlink:title=" ">
<path fill="none" stroke="#63b8ff" d="M69.12,-314.29C78.65,-344.06 110.18,-431.2 166,-479 166.95,-479.81 167.92,-480.6 168.93,-481.36"/>
<polygon fill="#63b8ff" stroke="#63b8ff" points="166.96,-484.26 177.25,-486.76 170.77,-478.38 166.96,-484.26"/>
</a>
</g>
</g>
<!-- Node5 -->
<g id="Node000005" class="node">
<title>Node5</title>
<g id="a_Node000005"><a xlink:href="group__pmw3901mb__interface__driver.html#gac914284b3c0f745485430c3c75b7fd04" target="_top" xlink:title="interface delay ms">
<polygon fill="white" stroke="#666666" points="289.62,-470 175.38,-470 175.38,-438 289.62,-438 289.62,-470"/>
<text xml:space="preserve" text-anchor="start" x="183.38" y="-456.5" font-family="Helvetica,sans-Serif" font-size="10.00">pmw3901mb_interface</text>
<text xml:space="preserve" text-anchor="middle" x="232.5" y="-444.5" font-family="Helvetica,sans-Serif" font-size="10.00">_delay_ms</text>
</a>
</g>
</g>
<!-- Node1&#45;&gt;Node5 -->
<g id="edge4_Node000001_Node000005" class="edge">
<title>Node1&#45;&gt;Node5</title>
<g id="a_edge4_Node000001_Node000005"><a xlink:title=" ">
<path fill="none" stroke="#63b8ff" d="M71.62,-314.27C84.96,-337.79 120.87,-396.07 166,-429 167.52,-430.11 169.1,-431.18 170.72,-432.2"/>
<polygon fill="#63b8ff" stroke="#63b8ff" points="168.62,-435.04 179.06,-436.88 172.05,-428.94 168.62,-435.04"/>
</a>
</g>
</g>
<!-- Node6 -->
<g id="Node000006" class="node">
<title>Node6</title>
<g id="a_Node000006"><a xlink:href="group__pmw3901mb__interface__driver.html#gac568697827e7a010b4ef783303aafadc" target="_top" xlink:title="interface reset gpio deinit">
<polygon fill="white" stroke="#666666" points="289.62,-420 175.38,-420 175.38,-388 289.62,-388 289.62,-420"/>
<text xml:space="preserve" text-anchor="start" x="183.38" y="-406.5" font-family="Helvetica,sans-Serif" font-size="10.00">pmw3901mb_interface</text>
<text xml:space="preserve" text-anchor="middle" x="232.5" y="-394.5" font-family="Helvetica,sans-Serif" font-size="10.00">_reset_gpio_deinit</text>
</a>
</g>
</g>
<!-- Node1&#45;&gt;Node6 -->
<g id="edge5_Node000001_Node000006" class="edge">
<title>Node1&#45;&gt;Node6</title>
<g id="a_edge5_Node000001_Node000006"><a xlink:title=" ">
<path fill="none" stroke="#63b8ff" d="M77.57,-314.4C95.46,-330.06 131.42,-359.92 166,-379 168.47,-380.36 171.03,-381.68 173.65,-382.96"/>
<polygon fill="#63b8ff" stroke="#63b8ff" points="171.99,-386.05 182.54,-387.02 174.9,-379.68 171.99,-386.05"/>
</a>
</g>
</g>
<!-- Node7 -->
<g id="Node000007" class="node">
<title>Node7</title>
<g id="a_Node000007"><a xlink:href="group__pmw3901mb__interface__driver.html#gadcd6c1f755e7ad2688498fa6c1753f26" target="_top" xlink:title="interface reset gpio init">
<polygon fill="white" stroke="#666666" points="289.62,-370 175.38,-370 175.38,-338 289.62,-338 289.62,-370"/>
<text xml:space="preserve" text-anchor="start" x="183.38" y="-356.5" font-family="Helvetica,sans-Serif" font-size="10.00">pmw3901mb_interface</text>
<text xml:space="preserve" text-anchor="middle" x="232.5" y="-344.5" font-family="Helvetica,sans-Serif" font-size="10.00">_reset_gpio_init</text>
</a>
</g>
</g>
<!-- Node1&#45;&gt;Node7 -->
<g id="edge6_Node000001_Node000007" class="edge">
<title>Node1&#45;&gt;Node7</title>
<g id="a_edge6_Node000001_Node000007"><a xlink:title=" ">
<path fill="none" stroke="#63b8ff" d="M100.69,-314.48C119.67,-320.22 143.81,-327.51 166.18,-334.26"/>
<polygon fill="#63b8ff" stroke="#63b8ff" points="164.95,-337.55 175.53,-337.09 166.97,-330.85 164.95,-337.55"/>
</a>
</g>
</g>
<!-- Node8 -->
<g id="Node000008" class="node">
<title>Node8</title>
<g id="a_Node000008"><a xlink:href="group__pmw3901mb__interface__driver.html#ga54ecf0d09850b36d4733c1a69b4689f6" target="_top" xlink:title="interface reset gpio write">
<polygon fill="white" stroke="#666666" points="289.62,-320 175.38,-320 175.38,-288 289.62,-288 289.62,-320"/>
<text xml:space="preserve" text-anchor="start" x="183.38" y="-306.5" font-family="Helvetica,sans-Serif" font-size="10.00">pmw3901mb_interface</text>
<text xml:space="preserve" text-anchor="middle" x="232.5" y="-294.5" font-family="Helvetica,sans-Serif" font-size="10.00">_reset_gpio_write</text>
</a>
</g>
</g>
<!-- Node1&#45;&gt;Node8 -->
<g id="edge7_Node000001_Node000008" class="edge">
<title>Node1&#45;&gt;Node8</title>
<g id="a_edge7_Node000001_Node000008"><a xlink:title=" ">
<path fill="none" stroke="#63b8ff" d="M130.46,-304C141.37,-304 152.73,-304 163.73,-304"/>
<polygon fill="#63b8ff" stroke="#63b8ff" points="163.5,-307.5 173.5,-304 163.5,-300.5 163.5,-307.5"/>
</a>
</g>
</g>
<!-- Node9 -->
<g id="Node000009" class="node">
<title>Node9</title>
<g id="a_Node000009"><a xlink:href="group__pmw3901mb__interface__driver.html#ga1e7baaeae268fb3a6de31f267d4cceba" target="_top" xlink:title="interface spi bus deinit">
<polygon fill="white" stroke="#666666" points="289.62,-270 175.38,-270 175.38,-238 289.62,-238 289.62,-270"/>
<text xml:space="preserve" text-anchor="start" x="183.38" y="-256.5" font-family="Helvetica,sans-Serif" font-size="10.00">pmw3901mb_interface</text>
<text xml:space="preserve" text-anchor="middle" x="232.5" y="-244.5" font-family="Helvetica,sans-Serif" font-size="10.00">_spi_deinit</text>
</a>
</g>
</g>
<!-- Node1&#45;&gt;Node9 -->
<g id="edge8_Node000001_Node000009" class="edge">
<title>Node1&#45;&gt;Node9</title>
<g id="a_edge8_Node000001_Node000009"><a xlink:title=" ">
<path fill="none" stroke="#63b8ff" d="M100.69,-293.52C119.67,-287.78 143.81,-280.49 166.18,-273.74"/>
<polygon fill="#63b8ff" stroke="#63b8ff" points="166.97,-277.15 175.53,-270.91 164.95,-270.45 166.97,-277.15"/>
</a>
</g>
</g>
<!-- Node10 -->
<g id="Node000010" class="node">
<title>Node10</title>
<g id="a_Node000010"><a xlink:href="group__pmw3901mb__interface__driver.html#gaa7adefa26694239a84ae7ede63019fc7" target="_top" xlink:title="interface spi bus init">
<polygon fill="white" stroke="#666666" points="289.62,-220 175.38,-220 175.38,-188 289.62,-188 289.62,-220"/>
<text xml:space="preserve" text-anchor="start" x="183.38" y="-206.5" font-family="Helvetica,sans-Serif" font-size="10.00">pmw3901mb_interface</text>
<text xml:space="preserve" text-anchor="middle" x="232.5" y="-194.5" font-family="Helvetica,sans-Serif" font-size="10.00">_spi_init</text>
</a>
</g>
</g>
<!-- Node1&#45;&gt;Node10 -->
<g id="edge9_Node000001_Node000010" class="edge">
<title>Node1&#45;&gt;Node10</title>
<g id="a_edge9_Node000001_Node000010"><a xlink:title=" ">
<path fill="none" stroke="#63b8ff" d="M77.57,-293.6C95.46,-277.94 131.42,-248.08 166,-229 168.47,-227.64 171.03,-226.32 173.65,-225.04"/>
<polygon fill="#63b8ff" stroke="#63b8ff" points="174.9,-228.32 182.54,-220.98 171.99,-221.95 174.9,-228.32"/>
</a>
</g>
</g>
<!-- Node11 -->
<g id="Node000011" class="node">
<title>Node11</title>
<g id="a_Node000011"><a xlink:href="group__pmw3901mb__interface__driver.html#ga6bd4337ac012c697f52c2287e868ff05" target="_top" xlink:title="interface spi bus read">
<polygon fill="white" stroke="#666666" points="289.62,-170 175.38,-170 175.38,-138 289.62,-138 289.62,-170"/>
<text xml:space="preserve" text-anchor="start" x="183.38" y="-156.5" font-family="Helvetica,sans-Serif" font-size="10.00">pmw3901mb_interface</text>
<text xml:space="preserve" text-anchor="middle" x="232.5" y="-144.5" font-family="Helvetica,sans-Serif" font-size="10.00">_spi_read</text>
</a>
</g>
</g>
<!-- Node1&#45;&gt;Node11 -->
<g id="edge10_Node000001_Node000011" class="edge">
<title>Node1&#45;&gt;Node11</title>
<g id="a_edge10_Node000001_Node000011"><a xlink:title=" ">
<path fill="none" stroke="#63b8ff" d="M71.62,-293.73C84.96,-270.21 120.87,-211.93 166,-179 167.52,-177.89 169.1,-176.82 170.72,-175.8"/>
<polygon fill="#63b8ff" stroke="#63b8ff" points="172.05,-179.06 179.06,-171.12 168.62,-172.96 172.05,-179.06"/>
</a>
</g>
</g>
<!-- Node12 -->
<g id="Node000012" class="node">
<title>Node12</title>
<g id="a_Node000012"><a xlink:href="group__pmw3901mb__interface__driver.html#ga1aeefc55c16e07637f9b86639670ef2d" target="_top" xlink:title="interface spi bus write">
<polygon fill="white" stroke="#666666" points="289.62,-120 175.38,-120 175.38,-88 289.62,-88 289.62,-120"/>
<text xml:space="preserve" text-anchor="start" x="183.38" y="-106.5" font-family="Helvetica,sans-Serif" font-size="10.00">pmw3901mb_interface</text>
<text xml:space="preserve" text-anchor="middle" x="232.5" y="-94.5" font-family="Helvetica,sans-Serif" font-size="10.00">_spi_write</text>
</a>
</g>
</g>
<!-- Node1&#45;&gt;Node12 -->
<g id="edge11_Node000001_Node000012" class="edge">
<title>Node1&#45;&gt;Node12</title>
<g id="a_edge11_Node000001_Node000012"><a xlink:title=" ">
<path fill="none" stroke="#63b8ff" d="M69.12,-293.71C78.65,-263.94 110.18,-176.8 166,-129 166.95,-128.19 167.92,-127.4 168.93,-126.64"/>
<polygon fill="#63b8ff" stroke="#63b8ff" points="170.77,-129.62 177.25,-121.24 166.96,-123.74 170.77,-129.62"/>
</a>
</g>
</g>
<!-- Node13 -->
<g id="Node000013" class="node">
<title>Node13</title>
<g id="a_Node000013"><a xlink:href="group__pmw3901mb__basic__driver.html#ga9506db09c4cbed19f76b351641c91fdb" target="_top" xlink:title="power up the chip">
<polygon fill="white" stroke="#666666" points="291.88,-70 173.12,-70 173.12,-50 291.88,-50 291.88,-70"/>
<text xml:space="preserve" text-anchor="middle" x="232.5" y="-56.5" font-family="Helvetica,sans-Serif" font-size="10.00">pmw3901mb_power_up</text>
</a>
</g>
</g>
<!-- Node1&#45;&gt;Node13 -->
<g id="edge12_Node000001_Node000013" class="edge">
<title>Node1&#45;&gt;Node13</title>
<g id="a_edge12_Node000001_Node000013"><a xlink:title=" ">
<path fill="none" stroke="#63b8ff" d="M67.47,-293.68C73.07,-258.15 96.43,-139.71 166,-79 167.1,-78.04 168.25,-77.12 169.44,-76.25"/>
<polygon fill="#63b8ff" stroke="#63b8ff" points="171.1,-79.34 177.91,-71.23 167.53,-73.32 171.1,-79.34"/>
</a>
</g>
</g>
<!-- Node14 -->
<g id="Node000014" class="node">
<title>Node14</title>
<g id="a_Node000014"><a xlink:href="group__pmw3901mb__basic__driver.html#ga94ff16cc54d5859c4cc054ccd462012f" target="_top" xlink:title="set the optimum performance">
<polygon fill="white" stroke="#666666" points="299,-32 166,-32 166,0 299,0 299,-32"/>
<text xml:space="preserve" text-anchor="start" x="174" y="-18.5" font-family="Helvetica,sans-Serif" font-size="10.00">pmw3901mb_set_optimum</text>
<text xml:space="preserve" text-anchor="middle" x="232.5" y="-6.5" font-family="Helvetica,sans-Serif" font-size="10.00">_performance</text>
</a>
</g>
</g>
<!-- Node1&#45;&gt;Node14 -->
<g id="edge13_Node000001_Node000014" class="edge">
<title>Node1&#45;&gt;Node14</title>
<g id="a_edge13_Node000001_Node000014"><a xlink:title=" ">
<path fill="none" stroke="#63b8ff" d="M66.95,-293.58C71.05,-254.72 90.57,-116.52 166,-41 166.61,-40.39 167.24,-39.79 167.89,-39.2"/>
<polygon fill="#63b8ff" stroke="#63b8ff" points="169.88,-42.08 175.8,-33.3 165.69,-36.47 169.88,-42.08"/>
</a>
</g>
</g>
</g>
</svg>
