<?xml version="1.0" encoding="UTF-8" standalone="no"?>
<!DOCTYPE svg PUBLIC "-//W3C//DTD SVG 1.1//EN"
 "http://www.w3.org/Graphics/SVG/1.1/DTD/svg11.dtd">
<!-- Generated by graphviz version 13.1.0 (20250701.0955)
 -->
<!-- Title: pmw3901mb_frame_deinit Pages: 1 -->
<svg width="300pt" height="78pt"
 viewBox="0.00 0.00 300.00 78.00" xmlns="http://www.w3.org/2000/svg" xmlns:xlink="http://www.w3.org/1999/xlink">
<g id="graph0" class="graph" transform="scale(1 1) rotate(0) translate(4 74)">
<title>pmw3901mb_frame_deinit</title>
<!-- Node1 -->
<g id="Node000001" class="node">
<title>Node1</title>
<g id="a_Node000001"><a xlink:title="frame example deinit">
<polygon fill="#999999" stroke="#666666" points="130,-48 0,-48 0,-28 130,-28 130,-48"/>
<text xml:space="preserve" text-anchor="middle" x="65" y="-34.5" font-family="Helvetica,sans-Serif" font-size="10.00">pmw3901mb_frame_deinit</text>
</a>
</g>
</g>
<!-- Node2 -->
<g id="Node000002" class="node">
<title>Node2</title>
<g id="a_Node000002"><a xlink:href="group__pmw3901mb__basic__driver.html#gae6e86f9e7e32d488c1786df0b076fa9d" target="_top" xlink:title="close the chip">
<polygon fill="white" stroke="#666666" points="278.75,-70 178.75,-70 178.75,-50 278.75,-50 278.75,-70"/>
<text xml:space="preserve" text-anchor="middle" x="228.75" y="-56.5" font-family="Helvetica,sans-Serif" font-size="10.00">pmw3901mb_deinit</text>
</a>
</g>
</g>
<!-- Node1&#45;&gt;Node2 -->
<g id="edge1_Node000001_Node000002" class="edge">
<title>Node1&#45;&gt;Node2</title>
<g id="a_edge1_Node000001_Node000002"><a xlink:title=" ">
<path fill="none" stroke="#63b8ff" d="M130.39,-46.76C142.48,-48.4 155.07,-50.12 167.04,-51.74"/>
<polygon fill="#63b8ff" stroke="#63b8ff" points="166.4,-55.19 176.79,-53.07 167.35,-48.25 166.4,-55.19"/>
</a>
</g>
</g>
<!-- Node3 -->
<g id="Node000003" class="node">
<title>Node3</title>
<g id="a_Node000003"><a xlink:href="group__pmw3901mb__basic__driver.html#ga0af5acdbe2d8d19abf1b9ec47290414e" target="_top" xlink:title="stop frame capture">
<polygon fill="white" stroke="#666666" points="291.5,-32 166,-32 166,0 291.5,0 291.5,-32"/>
<text xml:space="preserve" text-anchor="start" x="174" y="-18.5" font-family="Helvetica,sans-Serif" font-size="10.00">pmw3901mb_stop_frame</text>
<text xml:space="preserve" text-anchor="middle" x="228.75" y="-6.5" font-family="Helvetica,sans-Serif" font-size="10.00">_capture</text>
</a>
</g>
</g>
<!-- Node1&#45;&gt;Node3 -->
<g id="edge2_Node000001_Node000003" class="edge">
<title>Node1&#45;&gt;Node3</title>
<g id="a_edge2_Node000001_Node000003"><a xlink:title=" ">
<path fill="none" stroke="#63b8ff" d="M130.39,-29.24C138.3,-28.17 146.42,-27.06 154.44,-25.97"/>
<polygon fill="#63b8ff" stroke="#63b8ff" points="154.75,-29.46 164.19,-24.65 153.81,-22.53 154.75,-29.46"/>
</a>
</g>
</g>
</g>
</svg>
