<?xml version="1.0" encoding="UTF-8" standalone="no"?>
<!DOCTYPE svg PUBLIC "-//W3C//DTD SVG 1.1//EN"
 "http://www.w3.org/Graphics/SVG/1.1/DTD/svg11.dtd">
<!-- Generated by graphviz version 13.1.0 (20250701.0955)
 -->
<!-- Title: pmw3901mb_basic_init Pages: 1 -->
<svg width="295pt" height="604pt"
 viewBox="0.00 0.00 295.00 604.00" xmlns="http://www.w3.org/2000/svg" xmlns:xlink="http://www.w3.org/1999/xlink">
<g id="graph0" class="graph" transform="scale(1 1) rotate(0) translate(4 600)">
<title>pmw3901mb_basic_init</title>
<!-- Node1 -->
<g id="Node000001" class="node">
<title>Node1</title>
<g id="a_Node000001"><a xlink:title="basic example init">
<polygon fill="#999999" stroke="#666666" points="118,-314 0,-314 0,-294 118,-294 118,-314"/>
<text xml:space="preserve" text-anchor="middle" x="59" y="-300.5" font-family="Helvetica,sans-Serif" font-size="10.00">pmw3901mb_basic_init</text>
</a>
</g>
</g>
<!-- Node2 -->
<g id="Node000002" class="node">
<title>Node2</title>
<g id="a_Node000002"><a xlink:href="group__pmw3901mb__basic__driver.html#gae6e86f9e7e32d488c1786df0b076fa9d" target="_top" xlink:title="close the chip">
<polygon fill="white" stroke="#666666" points="270.5,-596 170.5,-596 170.5,-576 270.5,-576 270.5,-596"/>
<text xml:space="preserve" text-anchor="middle" x="220.5" y="-582.5" font-family="Helvetica,sans-Serif" font-size="10.00">pmw3901mb_deinit</text>
</a>
</g>
</g>
<!-- Node1&#45;&gt;Node2 -->
<g id="edge1_Node000001_Node000002" class="edge">
<title>Node1&#45;&gt;Node2</title>
<g id="a_edge1_Node000001_Node000002"><a xlink:title=" ">
<path fill="none" stroke="#63b8ff" d="M60.48,-314.33C62.85,-353.5 76.66,-494.23 154,-567 155.89,-568.78 157.94,-570.39 160.1,-571.86"/>
<polygon fill="#63b8ff" stroke="#63b8ff" points="158.43,-574.93 168.88,-576.64 161.77,-568.78 158.43,-574.93"/>
</a>
</g>
</g>
<!-- Node3 -->
<g id="Node000003" class="node">
<title>Node3</title>
<g id="a_Node000003"><a xlink:href="group__pmw3901mb__basic__driver.html#ga0059aa37a4744fa6cf395d241799f43b" target="_top" xlink:title="initialize the chip">
<polygon fill="white" stroke="#666666" points="265.25,-558 175.75,-558 175.75,-538 265.25,-538 265.25,-558"/>
<text xml:space="preserve" text-anchor="middle" x="220.5" y="-544.5" font-family="Helvetica,sans-Serif" font-size="10.00">pmw3901mb_init</text>
</a>
</g>
</g>
<!-- Node1&#45;&gt;Node3 -->
<g id="edge2_Node000001_Node000003" class="edge">
<title>Node1&#45;&gt;Node3</title>
<g id="a_edge2_Node000001_Node000003"><a xlink:title=" ">
<path fill="none" stroke="#63b8ff" d="M61.17,-314.3C65.76,-349.79 85.78,-468.11 154,-529 157.33,-531.98 161.11,-534.49 165.12,-536.6"/>
<polygon fill="#63b8ff" stroke="#63b8ff" points="163.51,-539.72 174.08,-540.5 166.3,-533.3 163.51,-539.72"/>
</a>
</g>
</g>
<!-- Node4 -->
<g id="Node000004" class="node">
<title>Node4</title>
<g id="a_Node000004"><a xlink:href="group__pmw3901mb__interface__driver.html#ga169b0aa3af5ce82c943795ea3019e88c" target="_top" xlink:title="interface print format data">
<polygon fill="white" stroke="#666666" points="277.62,-520 163.38,-520 163.38,-488 277.62,-488 277.62,-520"/>
<text xml:space="preserve" text-anchor="start" x="171.38" y="-506.5" font-family="Helvetica,sans-Serif" font-size="10.00">pmw3901mb_interface</text>
<text xml:space="preserve" text-anchor="middle" x="220.5" y="-494.5" font-family="Helvetica,sans-Serif" font-size="10.00">_debug_print</text>
</a>
</g>
</g>
<!-- Node1&#45;&gt;Node4 -->
<g id="edge3_Node000001_Node000004" class="edge">
<title>Node1&#45;&gt;Node4</title>
<g id="a_edge3_Node000001_Node000004"><a xlink:title=" ">
<path fill="none" stroke="#63b8ff" d="M62.75,-314.29C71.2,-344.05 99.61,-431.18 154,-479 154.91,-479.8 155.86,-480.58 156.82,-481.34"/>
<polygon fill="#63b8ff" stroke="#63b8ff" points="154.58,-484.05 164.85,-486.67 158.45,-478.22 154.58,-484.05"/>
</a>
</g>
</g>
<!-- Node5 -->
<g id="Node000005" class="node">
<title>Node5</title>
<g id="a_Node000005"><a xlink:href="group__pmw3901mb__interface__driver.html#gac914284b3c0f745485430c3c75b7fd04" target="_top" xlink:title="interface delay ms">
<polygon fill="white" stroke="#666666" points="277.62,-470 163.38,-470 163.38,-438 277.62,-438 277.62,-470"/>
<text xml:space="preserve" text-anchor="start" x="171.38" y="-456.5" font-family="Helvetica,sans-Serif" font-size="10.00">pmw3901mb_interface</text>
<text xml:space="preserve" text-anchor="middle" x="220.5" y="-444.5" font-family="Helvetica,sans-Serif" font-size="10.00">_delay_ms</text>
</a>
</g>
</g>
<!-- Node1&#45;&gt;Node5 -->
<g id="edge4_Node000001_Node000005" class="edge">
<title>Node1&#45;&gt;Node5</title>
<g id="a_edge4_Node000001_Node000005"><a xlink:title=" ">
<path fill="none" stroke="#63b8ff" d="M65.11,-314.28C77.32,-337.84 110.4,-396.17 154,-429 155.34,-430.01 156.72,-430.98 158.14,-431.91"/>
<polygon fill="#63b8ff" stroke="#63b8ff" points="156.22,-434.85 166.63,-436.83 159.73,-428.79 156.22,-434.85"/>
</a>
</g>
</g>
<!-- Node6 -->
<g id="Node000006" class="node">
<title>Node6</title>
<g id="a_Node000006"><a xlink:href="group__pmw3901mb__interface__driver.html#gac568697827e7a010b4ef783303aafadc" target="_top" xlink:title="interface reset gpio deinit">
<polygon fill="white" stroke="#666666" points="277.62,-420 163.38,-420 163.38,-388 277.62,-388 277.62,-420"/>
<text xml:space="preserve" text-anchor="start" x="171.38" y="-406.5" font-family="Helvetica,sans-Serif" font-size="10.00">pmw3901mb_interface</text>
<text xml:space="preserve" text-anchor="middle" x="220.5" y="-394.5" font-family="Helvetica,sans-Serif" font-size="10.00">_reset_gpio_deinit</text>
</a>
</g>
</g>
<!-- Node1&#45;&gt;Node6 -->
<g id="edge5_Node000001_Node000006" class="edge">
<title>Node1&#45;&gt;Node6</title>
<g id="a_edge5_Node000001_Node000006"><a xlink:title=" ">
<path fill="none" stroke="#63b8ff" d="M70.75,-314.45C87.42,-330.2 121.01,-360.15 154,-379 156.19,-380.25 158.45,-381.46 160.77,-382.63"/>
<polygon fill="#63b8ff" stroke="#63b8ff" points="159.22,-385.78 169.76,-386.86 162.2,-379.44 159.22,-385.78"/>
</a>
</g>
</g>
<!-- Node7 -->
<g id="Node000007" class="node">
<title>Node7</title>
<g id="a_Node000007"><a xlink:href="group__pmw3901mb__interface__driver.html#gadcd6c1f755e7ad2688498fa6c1753f26" target="_top" xlink:title="interface reset gpio init">
<polygon fill="white" stroke="#666666" points="277.62,-370 163.38,-370 163.38,-338 277.62,-338 277.62,-370"/>
<text xml:space="preserve" text-anchor="start" x="171.38" y="-356.5" font-family="Helvetica,sans-Serif" font-size="10.00">pmw3901mb_interface</text>
<text xml:space="preserve" text-anchor="middle" x="220.5" y="-344.5" font-family="Helvetica,sans-Serif" font-size="10.00">_reset_gpio_init</text>
</a>
</g>
</g>
<!-- Node1&#45;&gt;Node7 -->
<g id="edge6_Node000001_Node000007" class="edge">
<title>Node1&#45;&gt;Node7</title>
<g id="a_edge6_Node000001_Node000007"><a xlink:title=" ">
<path fill="none" stroke="#63b8ff" d="M93.44,-314.48C111.64,-320.19 134.78,-327.44 156.25,-334.17"/>
<polygon fill="#63b8ff" stroke="#63b8ff" points="154.92,-337.42 165.51,-337.08 157.02,-330.75 154.92,-337.42"/>
</a>
</g>
</g>
<!-- Node8 -->
<g id="Node000008" class="node">
<title>Node8</title>
<g id="a_Node000008"><a xlink:href="group__pmw3901mb__interface__driver.html#ga54ecf0d09850b36d4733c1a69b4689f6" target="_top" xlink:title="interface reset gpio write">
<polygon fill="white" stroke="#666666" points="277.62,-320 163.38,-320 163.38,-288 277.62,-288 277.62,-320"/>
<text xml:space="preserve" text-anchor="start" x="171.38" y="-306.5" font-family="Helvetica,sans-Serif" font-size="10.00">pmw3901mb_interface</text>
<text xml:space="preserve" text-anchor="middle" x="220.5" y="-294.5" font-family="Helvetica,sans-Serif" font-size="10.00">_reset_gpio_write</text>
</a>
</g>
</g>
<!-- Node1&#45;&gt;Node8 -->
<g id="edge7_Node000001_Node000008" class="edge">
<title>Node1&#45;&gt;Node8</title>
<g id="a_edge7_Node000001_Node000008"><a xlink:title=" ">
<path fill="none" stroke="#63b8ff" d="M118.49,-304C129.24,-304 140.55,-304 151.56,-304"/>
<polygon fill="#63b8ff" stroke="#63b8ff" points="151.37,-307.5 161.37,-304 151.37,-300.5 151.37,-307.5"/>
</a>
</g>
</g>
<!-- Node9 -->
<g id="Node000009" class="node">
<title>Node9</title>
<g id="a_Node000009"><a xlink:href="group__pmw3901mb__interface__driver.html#ga1e7baaeae268fb3a6de31f267d4cceba" target="_top" xlink:title="interface spi bus deinit">
<polygon fill="white" stroke="#666666" points="277.62,-270 163.38,-270 163.38,-238 277.62,-238 277.62,-270"/>
<text xml:space="preserve" text-anchor="start" x="171.38" y="-256.5" font-family="Helvetica,sans-Serif" font-size="10.00">pmw3901mb_interface</text>
<text xml:space="preserve" text-anchor="middle" x="220.5" y="-244.5" font-family="Helvetica,sans-Serif" font-size="10.00">_spi_deinit</text>
</a>
</g>
</g>
<!-- Node1&#45;&gt;Node9 -->
<g id="edge8_Node000001_Node000009" class="edge">
<title>Node1&#45;&gt;Node9</title>
<g id="a_edge8_Node000001_Node000009"><a xlink:title=" ">
<path fill="none" stroke="#63b8ff" d="M93.44,-293.52C111.64,-287.81 134.78,-280.56 156.25,-273.83"/>
<polygon fill="#63b8ff" stroke="#63b8ff" points="157.02,-277.25 165.51,-270.92 154.92,-270.58 157.02,-277.25"/>
</a>
</g>
</g>
<!-- Node10 -->
<g id="Node000010" class="node">
<title>Node10</title>
<g id="a_Node000010"><a xlink:href="group__pmw3901mb__interface__driver.html#gaa7adefa26694239a84ae7ede63019fc7" target="_top" xlink:title="interface spi bus init">
<polygon fill="white" stroke="#666666" points="277.62,-220 163.38,-220 163.38,-188 277.62,-188 277.62,-220"/>
<text xml:space="preserve" text-anchor="start" x="171.38" y="-206.5" font-family="Helvetica,sans-Serif" font-size="10.00">pmw3901mb_interface</text>
<text xml:space="preserve" text-anchor="middle" x="220.5" y="-194.5" font-family="Helvetica,sans-Serif" font-size="10.00">_spi_init</text>
</a>
</g>
</g>
<!-- Node1&#45;&gt;Node10 -->
<g id="edge9_Node000001_Node000010" class="edge">
<title>Node1&#45;&gt;Node10</title>
<g id="a_edge9_Node000001_Node000010"><a xlink:title=" ">
<path fill="none" stroke="#63b8ff" d="M70.75,-293.55C87.42,-277.8 121.01,-247.85 154,-229 156.19,-227.75 158.45,-226.54 160.77,-225.37"/>
<polygon fill="#63b8ff" stroke="#63b8ff" points="162.2,-228.56 169.76,-221.14 159.22,-222.22 162.2,-228.56"/>
</a>
</g>
</g>
<!-- Node11 -->
<g id="Node000011" class="node">
<title>Node11</title>
<g id="a_Node000011"><a xlink:href="group__pmw3901mb__interface__driver.html#ga6bd4337ac012c697f52c2287e868ff05" target="_top" xlink:title="interface spi bus read">
<polygon fill="white" stroke="#666666" points="277.62,-170 163.38,-170 163.38,-138 277.62,-138 277.62,-170"/>
<text xml:space="preserve" text-anchor="start" x="171.38" y="-156.5" font-family="Helvetica,sans-Serif" font-size="10.00">pmw3901mb_interface</text>
<text xml:space="preserve" text-anchor="middle" x="220.5" y="-144.5" font-family="Helvetica,sans-Serif" font-size="10.00">_spi_read</text>
</a>
</g>
</g>
<!-- Node1&#45;&gt;Node11 -->
<g id="edge10_Node000001_Node000011" class="edge">
<title>Node1&#45;&gt;Node11</title>
<g id="a_edge10_Node000001_Node000011"><a xlink:title=" ">
<path fill="none" stroke="#63b8ff" d="M65.11,-293.72C77.32,-270.16 110.4,-211.83 154,-179 155.34,-177.99 156.72,-177.02 158.14,-176.09"/>
<polygon fill="#63b8ff" stroke="#63b8ff" points="159.73,-179.21 166.63,-171.17 156.22,-173.15 159.73,-179.21"/>
</a>
</g>
</g>
<!-- Node12 -->
<g id="Node000012" class="node">
<title>Node12</title>
<g id="a_Node000012"><a xlink:href="group__pmw3901mb__interface__driver.html#ga1aeefc55c16e07637f9b86639670ef2d" target="_top" xlink:title="interface spi bus write">
<polygon fill="white" stroke="#666666" points="277.62,-120 163.38,-120 163.38,-88 277.62,-88 277.62,-120"/>
<text xml:space="preserve" text-anchor="start" x="171.38" y="-106.5" font-family="Helvetica,sans-Serif" font-size="10.00">pmw3901mb_interface</text>
<text xml:space="preserve" text-anchor="middle" x="220.5" y="-94.5" font-family="Helvetica,sans-Serif" font-size="10.00">_spi_write</text>
</a>
</g>
</g>
<!-- Node1&#45;&gt;Node12 -->
<g id="edge11_Node000001_Node000012" class="edge">
<title>Node1&#45;&gt;Node12</title>
<g id="a_edge11_Node000001_Node000012"><a xlink:title=" ">
<path fill="none" stroke="#63b8ff" d="M62.75,-293.71C71.2,-263.95 99.61,-176.82 154,-129 154.91,-128.2 155.86,-127.42 156.82,-126.66"/>
<polygon fill="#63b8ff" stroke="#63b8ff" points="158.45,-129.78 164.85,-121.33 154.58,-123.95 158.45,-129.78"/>
</a>
</g>
</g>
<!-- Node13 -->
<g id="Node000013" class="node">
<title>Node13</title>
<g id="a_Node000013"><a xlink:href="group__pmw3901mb__basic__driver.html#ga9506db09c4cbed19f76b351641c91fdb" target="_top" xlink:title="power up the chip">
<polygon fill="white" stroke="#666666" points="279.88,-70 161.12,-70 161.12,-50 279.88,-50 279.88,-70"/>
<text xml:space="preserve" text-anchor="middle" x="220.5" y="-56.5" font-family="Helvetica,sans-Serif" font-size="10.00">pmw3901mb_power_up</text>
</a>
</g>
</g>
<!-- Node1&#45;&gt;Node13 -->
<g id="edge12_Node000001_Node000013" class="edge">
<title>Node1&#45;&gt;Node13</title>
<g id="a_edge12_Node000001_Node000013"><a xlink:title=" ">
<path fill="none" stroke="#63b8ff" d="M61.17,-293.7C65.76,-258.21 85.78,-139.89 154,-79 155.09,-78.02 156.23,-77.1 157.41,-76.22"/>
<polygon fill="#63b8ff" stroke="#63b8ff" points="159.07,-79.31 165.84,-71.15 155.47,-73.31 159.07,-79.31"/>
</a>
</g>
</g>
<!-- Node14 -->
<g id="Node000014" class="node">
<title>Node14</title>
<g id="a_Node000014"><a xlink:href="group__pmw3901mb__basic__driver.html#ga94ff16cc54d5859c4cc054ccd462012f" target="_top" xlink:title="set the optimum performance">
<polygon fill="white" stroke="#666666" points="287,-32 154,-32 154,0 287,0 287,-32"/>
<text xml:space="preserve" text-anchor="start" x="162" y="-18.5" font-family="Helvetica,sans-Serif" font-size="10.00">pmw3901mb_set_optimum</text>
<text xml:space="preserve" text-anchor="middle" x="220.5" y="-6.5" font-family="Helvetica,sans-Serif" font-size="10.00">_performance</text>
</a>
</g>
</g>
<!-- Node1&#45;&gt;Node14 -->
<g id="edge13_Node000001_Node000014" class="edge">
<title>Node1&#45;&gt;Node14</title>
<g id="a_edge13_Node000001_Node000014"><a xlink:title=" ">
<path fill="none" stroke="#63b8ff" d="M60.69,-293.6C63.81,-254.77 79.89,-116.71 154,-41 154.61,-40.38 155.23,-39.78 155.87,-39.19"/>
<polygon fill="#63b8ff" stroke="#63b8ff" points="157.87,-42.06 163.73,-33.23 153.65,-36.48 157.87,-42.06"/>
</a>
</g>
</g>
</g>
</svg>
