<?xml version="1.0" encoding="UTF-8" standalone="no"?>
<!DOCTYPE svg PUBLIC "-//W3C//DTD SVG 1.1//EN"
 "http://www.w3.org/Graphics/SVG/1.1/DTD/svg11.dtd">
<!-- Generated by graphviz version 13.1.0 (20250701.0955)
 -->
<!-- Title: pmw3901mb driver function Pages: 1 -->
<svg width="318pt" height="290pt"
 viewBox="0.00 0.00 318.00 290.00" xmlns="http://www.w3.org/2000/svg" xmlns:xlink="http://www.w3.org/1999/xlink">
<g id="graph0" class="graph" transform="scale(1 1) rotate(0) translate(4 286)">
<title>pmw3901mb driver function</title>
<!-- Node3 -->
<g id="Node000003" class="node">
<title>Node3</title>
<g id="a_Node000003"><a xlink:href="group__pmw3901mb__basic__driver.html" target="_top" xlink:title="pmw3901mb basic driver modules">
<polygon fill="white" stroke="#666666" points="303.5,-282 178.75,-282 178.75,-250 303.5,-250 303.5,-282"/>
<text xml:space="preserve" text-anchor="start" x="186.75" y="-268.5" font-family="Helvetica,sans-Serif" font-size="10.00">pmw3901mb basic driver</text>
<text xml:space="preserve" text-anchor="middle" x="241.12" y="-256.5" font-family="Helvetica,sans-Serif" font-size="10.00"> function</text>
</a>
</g>
</g>
<!-- Node1 -->
<g id="Node000001" class="node">
<title>Node1</title>
<g id="a_Node000001"><a xlink:title="pmw3901mb driver modules">
<polygon fill="#999999" stroke="#666666" points="136,-151 0,-151 0,-131 136,-131 136,-151"/>
<text xml:space="preserve" text-anchor="middle" x="68" y="-137.5" font-family="Helvetica,sans-Serif" font-size="10.00">pmw3901mb driver function</text>
</a>
</g>
</g>
<!-- Node1&#45;&gt;Node3 -->
<g id="edge2" class="edge">
<title>Node1&#45;&gt;Node3</title>
<path fill="none" stroke="black" d="M84.25,-160.03C102.88,-182.19 136.34,-218.59 172,-241 177.01,-244.15 182.48,-246.99 188.07,-249.52"/>
<polygon fill="black" stroke="black" points="87.02,-157.89 77.96,-152.4 81.61,-162.34 87.02,-157.89"/>
</g>
<!-- Node6 -->
<g id="Node000006" class="node">
<title>Node6</title>
<g id="a_Node000006"><a xlink:href="group__pmw3901mb__example__driver.html" target="_top" xlink:title="pmw3901mb example driver modules">
<polygon fill="white" stroke="#666666" points="310.25,-232 172,-232 172,-200 310.25,-200 310.25,-232"/>
<text xml:space="preserve" text-anchor="start" x="180" y="-218.5" font-family="Helvetica,sans-Serif" font-size="10.00">pmw3901mb example driver</text>
<text xml:space="preserve" text-anchor="middle" x="241.12" y="-206.5" font-family="Helvetica,sans-Serif" font-size="10.00"> function</text>
</a>
</g>
</g>
<!-- Node1&#45;&gt;Node6 -->
<g id="edge5" class="edge">
<title>Node1&#45;&gt;Node6</title>
<path fill="none" stroke="black" d="M99.07,-156.58C119.41,-166.88 147.03,-180.39 172,-191 178.84,-193.91 186.15,-196.8 193.34,-199.54"/>
<polygon fill="black" stroke="black" points="100.7,-153.49 90.21,-152.06 97.52,-159.72 100.7,-153.49"/>
</g>
<!-- Node4 -->
<g id="Node000004" class="node">
<title>Node4</title>
<g id="a_Node000004"><a xlink:href="group__pmw3901mb__extern__driver.html" target="_top" xlink:title="pmw3901mb extern driver modules">
<polygon fill="white" stroke="#666666" points="305.38,-182 176.88,-182 176.88,-150 305.38,-150 305.38,-182"/>
<text xml:space="preserve" text-anchor="start" x="184.88" y="-168.5" font-family="Helvetica,sans-Serif" font-size="10.00">pmw3901mb extern driver</text>
<text xml:space="preserve" text-anchor="middle" x="241.12" y="-156.5" font-family="Helvetica,sans-Serif" font-size="10.00"> function</text>
</a>
</g>
</g>
<!-- Node1&#45;&gt;Node4 -->
<g id="edge3" class="edge">
<title>Node1&#45;&gt;Node4</title>
<path fill="none" stroke="black" d="M147.48,-152.47C157.21,-153.89 167.06,-155.33 176.53,-156.71"/>
<polygon fill="black" stroke="black" points="148.04,-149.01 137.64,-151.03 147.03,-155.94 148.04,-149.01"/>
</g>
<!-- Node5 -->
<g id="Node000005" class="node">
<title>Node5</title>
<g id="a_Node000005"><a xlink:href="group__pmw3901mb__interface__driver.html" target="_top" xlink:title="pmw3901mb interface driver modules">
<polygon fill="white" stroke="#666666" points="297.12,-132 185.12,-132 185.12,-100 297.12,-100 297.12,-132"/>
<text xml:space="preserve" text-anchor="start" x="193.12" y="-118.5" font-family="Helvetica,sans-Serif" font-size="10.00">pmw3901mb interface</text>
<text xml:space="preserve" text-anchor="middle" x="241.12" y="-106.5" font-family="Helvetica,sans-Serif" font-size="10.00"> driver function</text>
</a>
</g>
</g>
<!-- Node1&#45;&gt;Node5 -->
<g id="edge4" class="edge">
<title>Node1&#45;&gt;Node5</title>
<path fill="none" stroke="black" d="M147.2,-129.58C159.88,-127.72 172.78,-125.84 184.77,-124.09"/>
<polygon fill="black" stroke="black" points="147.03,-126.06 137.64,-130.97 148.04,-132.99 147.03,-126.06"/>
</g>
<!-- Node2 -->
<g id="Node000002" class="node">
<title>Node2</title>
<g id="a_Node000002"><a xlink:href="group__pmw3901mb__link__driver.html" target="_top" xlink:title="pmw3901mb link driver modules">
<polygon fill="white" stroke="#666666" points="299.38,-82 182.88,-82 182.88,-50 299.38,-50 299.38,-82"/>
<text xml:space="preserve" text-anchor="start" x="190.88" y="-68.5" font-family="Helvetica,sans-Serif" font-size="10.00">pmw3901mb link driver</text>
<text xml:space="preserve" text-anchor="middle" x="241.12" y="-56.5" font-family="Helvetica,sans-Serif" font-size="10.00"> function</text>
</a>
</g>
</g>
<!-- Node1&#45;&gt;Node2 -->
<g id="edge1" class="edge">
<title>Node1&#45;&gt;Node2</title>
<path fill="none" stroke="black" d="M99.07,-125.42C119.41,-115.12 147.03,-101.61 172,-91 178.84,-88.09 186.15,-85.2 193.34,-82.46"/>
<polygon fill="black" stroke="black" points="97.52,-122.28 90.21,-129.94 100.7,-128.51 97.52,-122.28"/>
</g>
<!-- Node7 -->
<g id="Node000007" class="node">
<title>Node7</title>
<g id="a_Node000007"><a xlink:href="group__pmw3901mb__test__driver.html" target="_top" xlink:title="pmw3901mb test driver modules">
<polygon fill="white" stroke="#666666" points="300.12,-32 182.12,-32 182.12,0 300.12,0 300.12,-32"/>
<text xml:space="preserve" text-anchor="start" x="190.12" y="-18.5" font-family="Helvetica,sans-Serif" font-size="10.00">pmw3901mb test driver</text>
<text xml:space="preserve" text-anchor="middle" x="241.12" y="-6.5" font-family="Helvetica,sans-Serif" font-size="10.00"> function</text>
</a>
</g>
</g>
<!-- Node1&#45;&gt;Node7 -->
<g id="edge6" class="edge">
<title>Node1&#45;&gt;Node7</title>
<path fill="none" stroke="black" d="M84.25,-121.97C102.88,-99.81 136.34,-63.41 172,-41 177.01,-37.85 182.48,-35.01 188.07,-32.48"/>
<polygon fill="black" stroke="black" points="81.61,-119.66 77.96,-129.6 87.02,-124.11 81.61,-119.66"/>
</g>
</g>
</svg>
